<svg width="200" height="83" viewBox="0 0 200 83" fill="none" xmlns="http://www.w3.org/2000/svg">
<g opacity="0.5" filter="url(#filter0_f_17_5633)">
<path d="M174.28 41.5C174.28 50.6127 159.456 58 141.169 58C122.882 58 25.28 54.7377 25.28 45.625C25.28 36.5123 122.882 25 141.169 25C159.456 25 174.28 32.3873 174.28 41.5Z" fill="#F9A35A"/>
</g>
<path d="M36.02 35.3599L34.16 35.9999L34.56 35.2599V46.5999L34.16 46.0199L36.02 46.5599V47.9999H30.44V46.5599L32.38 45.9999L31.92 46.5999V36.9799L32.34 36.9999L28.68 44.3399L26.88 44.4399L23.36 36.9599H23.78V46.5999L23.46 46.0599L25.26 46.5599V47.9999H20V46.5599L21.86 46.0199L21.48 46.5999V35.2599L21.86 35.9599L20 35.4599V34.0199L24.98 33.9199L28.28 41.5799H27.94L31.4 34.0199L36.02 33.9199V35.3599Z" fill="black"/>
<path d="M41.4609 46.3599L41.2609 46.1199L42.8009 46.5599V47.9999H37.3209V46.5599L38.8609 46.1199L38.6609 46.3599V39.0599L38.8409 39.2399L37.3209 38.8199V37.3799L41.4609 37.2399V46.3599ZM39.9809 35.6799C39.4876 35.6799 39.0876 35.5399 38.7809 35.2599C38.4876 34.9799 38.3409 34.5799 38.3409 34.0599C38.3409 33.4999 38.4943 33.0866 38.8009 32.8199C39.1209 32.5399 39.5209 32.3999 40.0009 32.3999C40.4676 32.3999 40.8543 32.5399 41.1609 32.8199C41.4676 33.0866 41.6209 33.4932 41.6209 34.0399C41.6209 34.5866 41.4609 34.9999 41.1409 35.2799C40.8343 35.5466 40.4476 35.6799 39.9809 35.6799Z" fill="black"/>
<path d="M43.6881 47.9999V46.5599L45.3081 46.0999L45.0281 46.5199V38.8399L45.3481 39.3199L43.6881 38.8199V37.3799L47.2081 37.2199L47.5681 39.1199L47.2081 39.0399C47.8081 38.4132 48.4015 37.9332 48.9881 37.5999C49.5748 37.2532 50.2015 37.0799 50.8681 37.0799C51.2948 37.0799 51.7481 37.1466 52.2281 37.2799L52.0481 40.9799H50.4281L50.1281 38.8199L50.3881 39.3599C50.3081 39.3332 50.2215 39.3132 50.1281 39.2999C50.0481 39.2866 49.9681 39.2799 49.8881 39.2799C49.4748 39.2799 49.0615 39.4066 48.6481 39.6599C48.2481 39.9132 47.9015 40.2399 47.6081 40.6399L47.8281 39.8799V46.5199L47.5081 46.0999L49.4881 46.5599V47.9999H43.6881Z" fill="black"/>
<path d="M61.5762 46.5799L61.1963 46.0199L62.9162 46.5599V47.9799L59.4162 48.1599L59.0362 46.2399L59.2362 46.2999C58.7029 46.9532 58.1229 47.4399 57.4963 47.7599C56.8696 48.0799 56.2229 48.2399 55.5562 48.2399C54.7029 48.2399 53.9963 47.9666 53.4362 47.4199C52.8762 46.8732 52.5962 46.0866 52.5962 45.0599C52.5962 44.2999 52.7562 43.6999 53.0762 43.2599C53.4096 42.8066 53.8896 42.4799 54.5163 42.2799C55.1429 42.0799 55.9029 41.9799 56.7962 41.9799H58.9762L58.7762 42.1999V40.8799C58.7762 40.2532 58.6229 39.8066 58.3162 39.5399C58.0229 39.2732 57.5896 39.1399 57.0163 39.1399C56.7363 39.1399 56.4362 39.1666 56.1162 39.2199C55.7962 39.2732 55.4496 39.3532 55.0762 39.4599L55.3562 39.1599L55.0962 40.7799H53.3562L53.1962 37.8599C54.1029 37.5932 54.9296 37.3999 55.6763 37.2799C56.4362 37.1466 57.1296 37.0799 57.7562 37.0799C58.9963 37.0799 59.9429 37.3466 60.5962 37.8799C61.2496 38.4132 61.5762 39.2399 61.5762 40.3599V46.5799ZM55.4162 44.7799C55.4162 45.2732 55.5296 45.6399 55.7562 45.8799C55.9963 46.1066 56.2962 46.2199 56.6562 46.2199C56.9896 46.2199 57.3562 46.1199 57.7562 45.9199C58.1562 45.7066 58.5362 45.4199 58.8962 45.0599L58.7762 45.5399V43.2599L58.9762 43.4599H57.2562C56.5629 43.4599 56.0829 43.5666 55.8162 43.7799C55.5496 43.9932 55.4162 44.3266 55.4162 44.7799Z" fill="black"/>
<path d="M68.6072 48.2399C67.6872 48.2399 66.8539 48.0266 66.1072 47.5999C65.3739 47.1599 64.7939 46.5332 64.3672 45.7199C63.9405 44.9066 63.7272 43.9199 63.7272 42.7599C63.7272 41.7066 63.8805 40.8199 64.1872 40.0999C64.4939 39.3799 64.9072 38.7999 65.4272 38.3599C65.9472 37.9066 66.5272 37.5799 67.1672 37.3799C67.8072 37.1799 68.4672 37.0799 69.1472 37.0799C69.7872 37.0799 70.4339 37.1599 71.0872 37.3199C71.7405 37.4799 72.2739 37.6599 72.6872 37.8599L72.6072 40.7999H70.8072L70.5072 39.1599L70.7272 39.3199C70.5272 39.2399 70.2805 39.1799 69.9872 39.1399C69.7072 39.0999 69.4472 39.0799 69.2072 39.0799C68.6339 39.0799 68.1539 39.2266 67.7672 39.5199C67.3939 39.7999 67.1139 40.2066 66.9272 40.7399C66.7405 41.2599 66.6472 41.8799 66.6472 42.5999C66.6472 43.3732 66.7539 44.0266 66.9672 44.5599C67.1805 45.0932 67.4805 45.4999 67.8672 45.7799C68.2672 46.0466 68.7272 46.1799 69.2472 46.1799C69.6605 46.1799 70.1139 46.0932 70.6072 45.9199C71.1005 45.7466 71.6139 45.4866 72.1472 45.1399L73.0872 46.5599C72.3405 47.1332 71.5939 47.5599 70.8472 47.8399C70.1005 48.1066 69.3539 48.2399 68.6072 48.2399Z" fill="black"/>
<path d="M77.763 46.3599L77.563 46.1199L79.103 46.5599V47.9999H73.643V46.5599L75.183 46.1199L74.963 46.3599V34.2599L75.143 34.4599L73.643 34.0399V32.5999L77.763 32.4399V46.3599Z" fill="black"/>
<path d="M84.9167 48.2399C83.9434 48.2399 83.09 48.0399 82.3567 47.6399C81.6234 47.2266 81.0501 46.6199 80.6367 45.8199C80.2367 45.0066 80.0367 44.0199 80.0367 42.8599C80.0367 41.6599 80.25 40.6332 80.6767 39.7799C81.1167 38.9132 81.73 38.2466 82.5167 37.7799C83.3034 37.3132 84.23 37.0799 85.2967 37.0799C86.3367 37.0799 87.1834 37.2866 87.8367 37.6999C88.4901 38.1132 88.9701 38.6799 89.2767 39.3999C89.5834 40.1066 89.7367 40.9066 89.7367 41.7999C89.7367 42.0266 89.7234 42.2532 89.6967 42.4799C89.6834 42.7066 89.6567 42.9466 89.6167 43.1999H82.2967V41.5399H87.2167L86.8567 41.7999C86.8701 41.2666 86.8167 40.7999 86.6967 40.3999C86.59 39.9866 86.4034 39.6666 86.1367 39.4399C85.8834 39.2132 85.5301 39.0999 85.0767 39.0999C84.5567 39.0999 84.1367 39.2532 83.8167 39.5599C83.4967 39.8532 83.2634 40.2532 83.1167 40.7599C82.9834 41.2666 82.9167 41.8332 82.9167 42.4599C82.9167 43.1666 83.0034 43.7999 83.1767 44.3599C83.35 44.9199 83.6301 45.3599 84.0167 45.6799C84.4167 45.9999 84.9367 46.1599 85.5767 46.1599C86.0301 46.1599 86.5167 46.0799 87.0367 45.9199C87.5701 45.7466 88.1234 45.4932 88.6967 45.1599L89.6367 46.6599C88.8634 47.1932 88.0701 47.5932 87.2567 47.8599C86.4567 48.1132 85.6767 48.2399 84.9167 48.2399Z" fill="black"/>
<path d="M110.727 35.3599L108.867 35.9999L109.267 35.2599V46.5999L108.867 46.0199L110.727 46.5599V47.9999H105.147V46.5599L107.087 45.9999L106.627 46.5999V36.9799L107.047 36.9999L103.387 44.3399L101.587 44.4399L98.067 36.9599H98.487V46.5999L98.167 46.0599L99.967 46.5599V47.9999H94.707V46.5599L96.567 46.0199L96.187 46.5999V35.2599L96.567 35.9599L94.707 35.4599V34.0199L99.687 33.9199L102.987 41.5799H102.647L106.107 34.0199L110.727 33.9199V35.3599Z" fill="black"/>
<path d="M116.772 48.2399C115.799 48.2399 114.946 48.0399 114.212 47.6399C113.479 47.2266 112.906 46.6199 112.492 45.8199C112.092 45.0066 111.892 44.0199 111.892 42.8599C111.892 41.6599 112.106 40.6332 112.532 39.7799C112.972 38.9132 113.586 38.2466 114.372 37.7799C115.159 37.3132 116.086 37.0799 117.152 37.0799C118.192 37.0799 119.039 37.2866 119.692 37.6999C120.346 38.1132 120.826 38.6799 121.132 39.3999C121.439 40.1066 121.592 40.9066 121.592 41.7999C121.592 42.0266 121.579 42.2532 121.552 42.4799C121.539 42.7066 121.512 42.9466 121.472 43.1999H114.152V41.5399H119.072L118.712 41.7999C118.726 41.2666 118.672 40.7999 118.552 40.3999C118.446 39.9866 118.259 39.6666 117.992 39.4399C117.739 39.2132 117.386 39.0999 116.932 39.0999C116.412 39.0999 115.992 39.2532 115.672 39.5599C115.352 39.8532 115.119 40.2532 114.972 40.7599C114.839 41.2666 114.772 41.8332 114.772 42.4599C114.772 43.1666 114.859 43.7999 115.032 44.3599C115.206 44.9199 115.486 45.3599 115.872 45.6799C116.272 45.9999 116.792 46.1599 117.432 46.1599C117.886 46.1599 118.372 46.0799 118.892 45.9199C119.426 45.7466 119.979 45.4932 120.552 45.1599L121.492 46.6599C120.719 47.1932 119.926 47.5932 119.112 47.8599C118.312 48.1132 117.532 48.2399 116.772 48.2399Z" fill="black"/>
<path d="M133.129 38.9399L132.729 39.0399C133.369 38.3866 134.049 37.8999 134.769 37.5799C135.489 37.2466 136.175 37.0799 136.829 37.0799C137.669 37.0799 138.369 37.3599 138.929 37.9199C139.502 38.4666 139.789 39.3132 139.789 40.4599V46.4799L139.529 46.0799L141.129 46.5599V47.9999H135.869V46.5599L137.329 46.1199L136.989 46.5399V41.0799C136.989 40.4399 136.855 39.9666 136.589 39.6599C136.335 39.3532 136.002 39.1999 135.589 39.1999C135.242 39.1999 134.855 39.3066 134.429 39.5199C134.002 39.7332 133.575 40.0466 133.149 40.4599L133.349 39.8399C133.375 39.9466 133.389 40.0466 133.389 40.1399C133.389 40.2199 133.389 40.2932 133.389 40.3599V46.4799L133.129 46.0799L134.529 46.5599V47.9999H129.449V46.5599L130.909 46.1199L130.589 46.5399V41.0799C130.589 40.4399 130.455 39.9666 130.189 39.6599C129.922 39.3532 129.589 39.1999 129.189 39.1999C128.842 39.1999 128.455 39.2999 128.029 39.4999C127.602 39.6999 127.189 39.9999 126.789 40.3999L126.969 39.9799V46.5399L126.709 46.1199L128.109 46.5599V47.9999H122.829V46.5599L124.509 46.0799L124.169 46.4799V38.8599L124.509 39.3199L122.829 38.8199V37.3799L126.349 37.2199L126.709 39.1399L126.349 38.9999C126.975 38.3732 127.642 37.8999 128.349 37.5799C129.069 37.2466 129.755 37.0799 130.409 37.0799C131.022 37.0799 131.569 37.2332 132.049 37.5399C132.529 37.8332 132.889 38.2999 133.129 38.9399Z" fill="black"/>
<path d="M147.251 37.0799C148.824 37.0799 150.051 37.5466 150.931 38.4799C151.811 39.4132 152.251 40.7399 152.251 42.4599C152.251 43.6599 152.037 44.6932 151.611 45.5599C151.184 46.4132 150.571 47.0732 149.771 47.5399C148.971 48.0066 148.011 48.2399 146.891 48.2399C145.317 48.2399 144.097 47.7732 143.231 46.8399C142.377 45.9066 141.951 44.5799 141.951 42.8599C141.951 41.6599 142.157 40.6332 142.571 39.7799C142.997 38.9132 143.604 38.2466 144.391 37.7799C145.177 37.3132 146.131 37.0799 147.251 37.0799ZM147.111 39.0799C146.351 39.0799 145.784 39.3799 145.411 39.9799C145.037 40.5666 144.851 41.4799 144.851 42.7199C144.851 43.9599 145.031 44.8599 145.391 45.4199C145.751 45.9666 146.297 46.2399 147.031 46.2399C147.564 46.2399 147.997 46.1066 148.331 45.8399C148.664 45.5732 148.917 45.1666 149.091 44.6199C149.264 44.0732 149.351 43.3999 149.351 42.5999C149.351 41.3866 149.164 40.4999 148.791 39.9399C148.417 39.3666 147.857 39.0799 147.111 39.0799Z" fill="black"/>
<path d="M153.454 47.9999V46.5599L155.074 46.0999L154.794 46.5199V38.8399L155.114 39.3199L153.454 38.8199V37.3799L156.974 37.2199L157.334 39.1199L156.974 39.0399C157.574 38.4132 158.167 37.9332 158.754 37.5999C159.34 37.2532 159.967 37.0799 160.634 37.0799C161.06 37.0799 161.514 37.1466 161.994 37.2799L161.814 40.9799H160.194L159.894 38.8199L160.154 39.3599C160.074 39.3332 159.987 39.3132 159.894 39.2999C159.814 39.2866 159.734 39.2799 159.654 39.2799C159.24 39.2799 158.827 39.4066 158.414 39.6599C158.014 39.9132 157.667 40.2399 157.374 40.6399L157.594 39.8799V46.5199L157.274 46.0999L159.254 46.5599V47.9999H153.454Z" fill="black"/>
<path d="M162.76 52.6999L163.02 50.7199C163.234 50.7466 163.427 50.7666 163.6 50.7799C163.787 50.7932 163.96 50.7999 164.12 50.7999C164.707 50.7999 165.18 50.6799 165.54 50.4399C165.914 50.2132 166.234 49.8532 166.5 49.3599C166.78 48.8799 167.054 48.2532 167.32 47.4799L167.22 48.4199L163.38 38.8799L163.64 39.1199L162.48 38.8399V37.3999L167.46 37.2399V38.6599L166.06 39.0399L166.2 38.7999L168.74 46.2799L168.06 46.1399L170.32 38.8399L170.46 39.1199L169.08 38.8399V37.3999L173.8 37.2399V38.6599L172.54 39.0599L172.92 38.8199L169.62 47.9599C169.34 48.7332 169.04 49.4199 168.72 50.0199C168.4 50.6199 168.034 51.1266 167.62 51.5399C167.22 51.9666 166.747 52.2866 166.2 52.4999C165.667 52.7266 165.04 52.8399 164.32 52.8399C163.854 52.8399 163.334 52.7932 162.76 52.6999Z" fill="black"/>
<defs>
<filter id="filter0_f_17_5633" x="0.280029" y="0" width="199" height="83" filterUnits="userSpaceOnUse" color-interpolation-filters="sRGB">
<feFlood flood-opacity="0" result="BackgroundImageFix"/>
<feBlend mode="normal" in="SourceGraphic" in2="BackgroundImageFix" result="shape"/>
<feGaussianBlur stdDeviation="12.5" result="effect1_foregroundBlur_17_5633"/>
</filter>
</defs>
</svg>
