<svg width="24" height="24" viewBox="0 0 24 24" fill="none" xmlns="http://www.w3.org/2000/svg">
<path d="M19.2 3H4.8C3.80589 3 3 3.80589 3 4.8V8.4C3 9.39411 3.80589 10.2 4.8 10.2H19.2C20.1941 10.2 21 9.39411 21 8.4V4.8C21 3.80589 20.1941 3 19.2 3Z" fill="#B7B7B7" stroke="#B7B7B7" stroke-width="2" stroke-linecap="round" stroke-linejoin="round"/>
<path d="M19.2 13.8H4.8C3.80589 13.8 3 14.6059 3 15.6V19.2C3 20.1942 3.80589 21 4.8 21H19.2C20.1941 21 21 20.1942 21 19.2V15.6C21 14.6059 20.1941 13.8 19.2 13.8Z" fill="#B7B7B7" stroke="#B7B7B7" stroke-width="2" stroke-linecap="round" stroke-linejoin="round"/>
</svg>
